<mxfile host="app.diagrams.net" modified="2022-09-30T01:29:20.816Z" agent="5.0 (Windows NT 10.0; Win64; x64) AppleWebKit/537.36 (KHTML, like Gecko) Chrome/105.0.0.0 Safari/537.36 Edg/105.0.1343.42" etag="paFC69VHVQ95DFNZI5Ec" version="20.3.7" type="github">
  <diagram id="ZTMRkwRH3Y6STqkpY4_5" name="第 1 页">
    <mxGraphModel dx="3382" dy="1280" grid="1" gridSize="10" guides="1" tooltips="1" connect="1" arrows="1" fold="1" page="1" pageScale="1" pageWidth="827" pageHeight="1169" background="#FFFFFF" math="0" shadow="1">
      <root>
        <mxCell id="0" />
        <mxCell id="1" parent="0" />
        <mxCell id="rOpeUlGEQSWVmMxPxrqn-1" value="" style="rounded=0;whiteSpace=wrap;html=1;" vertex="1" parent="1">
          <mxGeometry x="172.5" y="160" width="1087.5" height="660" as="geometry" />
        </mxCell>
        <mxCell id="6DcmtxWnwPzk28zKYCVo-16" value="" style="rounded=0;whiteSpace=wrap;html=1;fillColor=#99CCFF;strokeColor=#6c8ebf;" parent="1" vertex="1">
          <mxGeometry x="340" y="435" width="870" height="230" as="geometry" />
        </mxCell>
        <mxCell id="6fKO2jBU-R8SY8L-EKMl-99" value="" style="rounded=0;whiteSpace=wrap;html=1;fillColor=#99CCFF;strokeColor=#6c8ebf;" parent="1" vertex="1">
          <mxGeometry x="340" y="695" width="870" height="80" as="geometry" />
        </mxCell>
        <mxCell id="6fKO2jBU-R8SY8L-EKMl-82" value="" style="rounded=0;whiteSpace=wrap;html=1;fillColor=#99CCFF;strokeColor=#82b366;" parent="1" vertex="1">
          <mxGeometry x="340" y="200" width="870" height="190" as="geometry" />
        </mxCell>
        <mxCell id="6fKO2jBU-R8SY8L-EKMl-49" style="edgeStyle=orthogonalEdgeStyle;rounded=0;orthogonalLoop=1;jettySize=auto;html=1;exitX=0.5;exitY=0;exitDx=0;exitDy=0;entryX=0.104;entryY=1.025;entryDx=0;entryDy=0;entryPerimeter=0;" parent="1" source="6fKO2jBU-R8SY8L-EKMl-10" target="6fKO2jBU-R8SY8L-EKMl-14" edge="1">
          <mxGeometry relative="1" as="geometry" />
        </mxCell>
        <mxCell id="6fKO2jBU-R8SY8L-EKMl-10" value="IND500x_ZZProtocol" style="rounded=0;whiteSpace=wrap;html=1;fillColor=#CCE5FF;" parent="1" vertex="1">
          <mxGeometry x="360" y="715" width="140" height="40" as="geometry" />
        </mxCell>
        <mxCell id="6fKO2jBU-R8SY8L-EKMl-47" style="edgeStyle=orthogonalEdgeStyle;rounded=0;orthogonalLoop=1;jettySize=auto;html=1;exitX=0.5;exitY=0;exitDx=0;exitDy=0;" parent="1" source="6fKO2jBU-R8SY8L-EKMl-11" edge="1">
          <mxGeometry relative="1" as="geometry">
            <mxPoint x="610" y="695" as="sourcePoint" />
            <mxPoint x="610" y="645" as="targetPoint" />
          </mxGeometry>
        </mxCell>
        <mxCell id="6fKO2jBU-R8SY8L-EKMl-11" value="IND570_ZZProtocol" style="rounded=0;whiteSpace=wrap;html=1;fillColor=#CCE5FF;" parent="1" vertex="1">
          <mxGeometry x="540" y="715" width="140" height="40" as="geometry" />
        </mxCell>
        <mxCell id="6fKO2jBU-R8SY8L-EKMl-46" style="edgeStyle=orthogonalEdgeStyle;rounded=0;orthogonalLoop=1;jettySize=auto;html=1;exitX=0.5;exitY=0;exitDx=0;exitDy=0;entryX=0.631;entryY=1.071;entryDx=0;entryDy=0;entryPerimeter=0;" parent="1" source="6fKO2jBU-R8SY8L-EKMl-12" target="6fKO2jBU-R8SY8L-EKMl-14" edge="1">
          <mxGeometry relative="1" as="geometry">
            <mxPoint x="800" y="655" as="targetPoint" />
          </mxGeometry>
        </mxCell>
        <mxCell id="6fKO2jBU-R8SY8L-EKMl-12" value="IND400_ZZProtocol" style="rounded=0;whiteSpace=wrap;html=1;fillColor=#CCE5FF;" parent="1" vertex="1">
          <mxGeometry x="720" y="715" width="140" height="40" as="geometry" />
        </mxCell>
        <mxCell id="6fKO2jBU-R8SY8L-EKMl-45" style="edgeStyle=orthogonalEdgeStyle;rounded=0;orthogonalLoop=1;jettySize=auto;html=1;exitX=0.5;exitY=0;exitDx=0;exitDy=0;entryX=0.896;entryY=1;entryDx=0;entryDy=0;entryPerimeter=0;" parent="1" source="6fKO2jBU-R8SY8L-EKMl-13" target="6fKO2jBU-R8SY8L-EKMl-14" edge="1">
          <mxGeometry relative="1" as="geometry" />
        </mxCell>
        <mxCell id="6fKO2jBU-R8SY8L-EKMl-13" value="ICS_ZZProtocol" style="rounded=0;whiteSpace=wrap;html=1;fillColor=#CCE5FF;" parent="1" vertex="1">
          <mxGeometry x="900" y="715" width="140" height="40" as="geometry" />
        </mxCell>
        <mxCell id="6fKO2jBU-R8SY8L-EKMl-14" value="IAutomationDriver" style="rounded=0;whiteSpace=wrap;html=1;fillColor=#CCE5FF;" parent="1" vertex="1">
          <mxGeometry x="360" y="605" width="680" height="40" as="geometry" />
        </mxCell>
        <mxCell id="6fKO2jBU-R8SY8L-EKMl-15" value="Driver_base" style="rounded=0;whiteSpace=wrap;html=1;fillColor=#CCE5FF;" parent="1" vertex="1">
          <mxGeometry x="360" y="535" width="680" height="40" as="geometry" />
        </mxCell>
        <mxCell id="6fKO2jBU-R8SY8L-EKMl-60" style="edgeStyle=orthogonalEdgeStyle;rounded=0;orthogonalLoop=1;jettySize=auto;html=1;exitX=0.5;exitY=0;exitDx=0;exitDy=0;entryX=0.5;entryY=1;entryDx=0;entryDy=0;" parent="1" target="6fKO2jBU-R8SY8L-EKMl-21" edge="1">
          <mxGeometry relative="1" as="geometry">
            <mxPoint x="610" y="535" as="sourcePoint" />
          </mxGeometry>
        </mxCell>
        <mxCell id="6fKO2jBU-R8SY8L-EKMl-61" style="edgeStyle=orthogonalEdgeStyle;rounded=0;orthogonalLoop=1;jettySize=auto;html=1;exitX=0.5;exitY=0;exitDx=0;exitDy=0;entryX=0.5;entryY=1;entryDx=0;entryDy=0;" parent="1" target="6fKO2jBU-R8SY8L-EKMl-22" edge="1">
          <mxGeometry relative="1" as="geometry">
            <mxPoint x="790" y="535" as="sourcePoint" />
          </mxGeometry>
        </mxCell>
        <mxCell id="6fKO2jBU-R8SY8L-EKMl-62" style="edgeStyle=orthogonalEdgeStyle;rounded=0;orthogonalLoop=1;jettySize=auto;html=1;exitX=0.5;exitY=0;exitDx=0;exitDy=0;entryX=0.5;entryY=1;entryDx=0;entryDy=0;" parent="1" target="6fKO2jBU-R8SY8L-EKMl-23" edge="1">
          <mxGeometry relative="1" as="geometry">
            <mxPoint x="970" y="535" as="sourcePoint" />
          </mxGeometry>
        </mxCell>
        <mxCell id="6fKO2jBU-R8SY8L-EKMl-66" style="edgeStyle=orthogonalEdgeStyle;rounded=0;orthogonalLoop=1;jettySize=auto;html=1;exitX=0.5;exitY=0;exitDx=0;exitDy=0;entryX=0.5;entryY=1;entryDx=0;entryDy=0;" parent="1" source="6fKO2jBU-R8SY8L-EKMl-19" target="6fKO2jBU-R8SY8L-EKMl-24" edge="1">
          <mxGeometry relative="1" as="geometry" />
        </mxCell>
        <mxCell id="6fKO2jBU-R8SY8L-EKMl-19" value="IND500x_Driver" style="rounded=0;whiteSpace=wrap;html=1;fillColor=#CCE5FF;" parent="1" vertex="1">
          <mxGeometry x="360" y="455" width="140" height="40" as="geometry" />
        </mxCell>
        <mxCell id="6fKO2jBU-R8SY8L-EKMl-65" style="edgeStyle=orthogonalEdgeStyle;rounded=0;orthogonalLoop=1;jettySize=auto;html=1;exitX=0.5;exitY=0;exitDx=0;exitDy=0;entryX=0.5;entryY=1;entryDx=0;entryDy=0;" parent="1" source="6fKO2jBU-R8SY8L-EKMl-21" target="6fKO2jBU-R8SY8L-EKMl-25" edge="1">
          <mxGeometry relative="1" as="geometry" />
        </mxCell>
        <mxCell id="6fKO2jBU-R8SY8L-EKMl-21" value="IND570_Driver" style="rounded=0;whiteSpace=wrap;html=1;fillColor=#CCE5FF;" parent="1" vertex="1">
          <mxGeometry x="540" y="455" width="140" height="40" as="geometry" />
        </mxCell>
        <mxCell id="6fKO2jBU-R8SY8L-EKMl-64" style="edgeStyle=orthogonalEdgeStyle;rounded=0;orthogonalLoop=1;jettySize=auto;html=1;exitX=0.5;exitY=0;exitDx=0;exitDy=0;entryX=0.5;entryY=1;entryDx=0;entryDy=0;" parent="1" source="6fKO2jBU-R8SY8L-EKMl-22" target="6fKO2jBU-R8SY8L-EKMl-26" edge="1">
          <mxGeometry relative="1" as="geometry" />
        </mxCell>
        <mxCell id="6fKO2jBU-R8SY8L-EKMl-22" value="IND400_Driver" style="rounded=0;whiteSpace=wrap;html=1;fillColor=#CCE5FF;" parent="1" vertex="1">
          <mxGeometry x="720" y="455" width="140" height="40" as="geometry" />
        </mxCell>
        <mxCell id="6fKO2jBU-R8SY8L-EKMl-63" style="edgeStyle=orthogonalEdgeStyle;rounded=0;orthogonalLoop=1;jettySize=auto;html=1;entryX=0.516;entryY=1.088;entryDx=0;entryDy=0;entryPerimeter=0;" parent="1" target="6fKO2jBU-R8SY8L-EKMl-27" edge="1">
          <mxGeometry relative="1" as="geometry">
            <mxPoint x="972" y="455" as="sourcePoint" />
          </mxGeometry>
        </mxCell>
        <mxCell id="6fKO2jBU-R8SY8L-EKMl-23" value="ICS_Drvier" style="rounded=0;whiteSpace=wrap;html=1;fillColor=#CCE5FF;" parent="1" vertex="1">
          <mxGeometry x="901" y="455" width="140" height="40" as="geometry" />
        </mxCell>
        <mxCell id="6fKO2jBU-R8SY8L-EKMl-73" style="edgeStyle=orthogonalEdgeStyle;rounded=0;orthogonalLoop=1;jettySize=auto;html=1;exitX=0.5;exitY=0;exitDx=0;exitDy=0;entryX=0.5;entryY=1;entryDx=0;entryDy=0;" parent="1" source="6fKO2jBU-R8SY8L-EKMl-24" target="6fKO2jBU-R8SY8L-EKMl-67" edge="1">
          <mxGeometry relative="1" as="geometry" />
        </mxCell>
        <mxCell id="6fKO2jBU-R8SY8L-EKMl-24" value="IND500X_Base&lt;br&gt;Operation" style="rounded=0;whiteSpace=wrap;html=1;fillColor=#CCE5FF;" parent="1" vertex="1">
          <mxGeometry x="360" y="320" width="140" height="40" as="geometry" />
        </mxCell>
        <mxCell id="6fKO2jBU-R8SY8L-EKMl-74" style="edgeStyle=orthogonalEdgeStyle;rounded=0;orthogonalLoop=1;jettySize=auto;html=1;exitX=0.5;exitY=0;exitDx=0;exitDy=0;entryX=0.5;entryY=1;entryDx=0;entryDy=0;" parent="1" source="6fKO2jBU-R8SY8L-EKMl-25" target="6fKO2jBU-R8SY8L-EKMl-68" edge="1">
          <mxGeometry relative="1" as="geometry" />
        </mxCell>
        <mxCell id="6fKO2jBU-R8SY8L-EKMl-25" value="IND570_Base&lt;br&gt;Operation" style="rounded=0;whiteSpace=wrap;html=1;fillColor=#CCE5FF;" parent="1" vertex="1">
          <mxGeometry x="540" y="320" width="140" height="40" as="geometry" />
        </mxCell>
        <mxCell id="6fKO2jBU-R8SY8L-EKMl-75" style="edgeStyle=orthogonalEdgeStyle;rounded=0;orthogonalLoop=1;jettySize=auto;html=1;exitX=0.5;exitY=0;exitDx=0;exitDy=0;entryX=0.5;entryY=1;entryDx=0;entryDy=0;" parent="1" source="6fKO2jBU-R8SY8L-EKMl-26" target="6fKO2jBU-R8SY8L-EKMl-69" edge="1">
          <mxGeometry relative="1" as="geometry" />
        </mxCell>
        <mxCell id="6fKO2jBU-R8SY8L-EKMl-26" value="IND400_Base&lt;br&gt;Operation" style="rounded=0;whiteSpace=wrap;html=1;fillColor=#CCE5FF;" parent="1" vertex="1">
          <mxGeometry x="720" y="320" width="140" height="40" as="geometry" />
        </mxCell>
        <mxCell id="6fKO2jBU-R8SY8L-EKMl-76" style="edgeStyle=orthogonalEdgeStyle;rounded=0;orthogonalLoop=1;jettySize=auto;html=1;exitX=0.5;exitY=0;exitDx=0;exitDy=0;entryX=0.5;entryY=1;entryDx=0;entryDy=0;" parent="1" source="6fKO2jBU-R8SY8L-EKMl-27" target="6fKO2jBU-R8SY8L-EKMl-70" edge="1">
          <mxGeometry relative="1" as="geometry" />
        </mxCell>
        <mxCell id="6fKO2jBU-R8SY8L-EKMl-27" value="ICS_Base&lt;br&gt;Operation" style="rounded=0;whiteSpace=wrap;html=1;fillColor=#CCE5FF;" parent="1" vertex="1">
          <mxGeometry x="900" y="320" width="140" height="40" as="geometry" />
        </mxCell>
        <mxCell id="6fKO2jBU-R8SY8L-EKMl-77" style="edgeStyle=orthogonalEdgeStyle;rounded=0;orthogonalLoop=1;jettySize=auto;html=1;exitX=0.5;exitY=0;exitDx=0;exitDy=0;entryX=1;entryY=0.5;entryDx=0;entryDy=0;fillColor=#0050ef;strokeColor=#001DBC;" parent="1" source="6fKO2jBU-R8SY8L-EKMl-30" target="6fKO2jBU-R8SY8L-EKMl-70" edge="1">
          <mxGeometry relative="1" as="geometry" />
        </mxCell>
        <mxCell id="6fKO2jBU-R8SY8L-EKMl-30" value="IxxOperation" style="rounded=0;whiteSpace=wrap;html=1;fillColor=#CCE5FF;" parent="1" vertex="1">
          <mxGeometry x="1080" y="320" width="123" height="40" as="geometry" />
        </mxCell>
        <mxCell id="6fKO2jBU-R8SY8L-EKMl-67" value="IND500x_xx_Oeprations" style="rounded=0;whiteSpace=wrap;html=1;fillColor=#CCE5FF;" parent="1" vertex="1">
          <mxGeometry x="360" y="230" width="140" height="40" as="geometry" />
        </mxCell>
        <mxCell id="6fKO2jBU-R8SY8L-EKMl-80" value="" style="edgeStyle=orthogonalEdgeStyle;rounded=0;orthogonalLoop=1;jettySize=auto;html=1;fillColor=#0050ef;strokeColor=#001DBC;" parent="1" source="6fKO2jBU-R8SY8L-EKMl-68" target="6fKO2jBU-R8SY8L-EKMl-67" edge="1">
          <mxGeometry relative="1" as="geometry" />
        </mxCell>
        <mxCell id="6fKO2jBU-R8SY8L-EKMl-68" value="IND570_xx_Oeprations" style="rounded=0;whiteSpace=wrap;html=1;fillColor=#CCE5FF;" parent="1" vertex="1">
          <mxGeometry x="540" y="230" width="140" height="40" as="geometry" />
        </mxCell>
        <mxCell id="6fKO2jBU-R8SY8L-EKMl-79" value="" style="edgeStyle=orthogonalEdgeStyle;rounded=0;orthogonalLoop=1;jettySize=auto;html=1;fillColor=#0050ef;strokeColor=#001DBC;" parent="1" source="6fKO2jBU-R8SY8L-EKMl-69" target="6fKO2jBU-R8SY8L-EKMl-68" edge="1">
          <mxGeometry relative="1" as="geometry" />
        </mxCell>
        <mxCell id="6fKO2jBU-R8SY8L-EKMl-69" value="IND400_xx_Oeprations" style="rounded=0;whiteSpace=wrap;html=1;fillColor=#CCE5FF;" parent="1" vertex="1">
          <mxGeometry x="720" y="230" width="140" height="40" as="geometry" />
        </mxCell>
        <mxCell id="6fKO2jBU-R8SY8L-EKMl-78" value="" style="edgeStyle=orthogonalEdgeStyle;rounded=0;orthogonalLoop=1;jettySize=auto;html=1;fillColor=#0050ef;strokeColor=#001DBC;" parent="1" source="6fKO2jBU-R8SY8L-EKMl-70" target="6fKO2jBU-R8SY8L-EKMl-69" edge="1">
          <mxGeometry relative="1" as="geometry" />
        </mxCell>
        <mxCell id="6fKO2jBU-R8SY8L-EKMl-70" value="ICS_xx_Oeprations" style="rounded=0;whiteSpace=wrap;html=1;fillColor=#CCE5FF;" parent="1" vertex="1">
          <mxGeometry x="900" y="230" width="140" height="40" as="geometry" />
        </mxCell>
        <mxCell id="6fKO2jBU-R8SY8L-EKMl-106" value="" style="verticalLabelPosition=bottom;verticalAlign=top;html=1;shape=offPageConnector;rounded=0;size=0.5;fontSize=20;direction=south;fillColor=#99CCFF;strokeColor=#d6b656;" parent="1" vertex="1">
          <mxGeometry x="205" y="210" width="90" height="180" as="geometry" />
        </mxCell>
        <mxCell id="6fKO2jBU-R8SY8L-EKMl-107" value="&lt;font style=&quot;font-size: 18px;&quot;&gt;Operation&lt;/font&gt;" style="text;html=1;align=center;verticalAlign=middle;resizable=0;points=[];autosize=1;strokeColor=none;fillColor=none;" parent="1" vertex="1">
          <mxGeometry x="205" y="280" width="100" height="40" as="geometry" />
        </mxCell>
        <mxCell id="6DcmtxWnwPzk28zKYCVo-4" style="edgeStyle=orthogonalEdgeStyle;rounded=0;orthogonalLoop=1;jettySize=auto;html=1;entryX=0.5;entryY=1;entryDx=0;entryDy=0;" parent="1" target="6fKO2jBU-R8SY8L-EKMl-19" edge="1">
          <mxGeometry relative="1" as="geometry">
            <mxPoint x="430" y="535" as="sourcePoint" />
            <mxPoint x="640" y="515" as="targetPoint" />
          </mxGeometry>
        </mxCell>
        <mxCell id="6DcmtxWnwPzk28zKYCVo-5" style="edgeStyle=orthogonalEdgeStyle;rounded=0;orthogonalLoop=1;jettySize=auto;html=1;entryX=0.5;entryY=1;entryDx=0;entryDy=0;" parent="1" target="6fKO2jBU-R8SY8L-EKMl-15" edge="1">
          <mxGeometry relative="1" as="geometry">
            <mxPoint x="700" y="605" as="sourcePoint" />
            <mxPoint x="620" y="495" as="targetPoint" />
          </mxGeometry>
        </mxCell>
        <mxCell id="6DcmtxWnwPzk28zKYCVo-12" value="" style="verticalLabelPosition=bottom;verticalAlign=top;html=1;shape=offPageConnector;rounded=0;size=0.5;direction=south;fillColor=#99CCFF;strokeColor=#d6b656;" parent="1" vertex="1">
          <mxGeometry x="200" y="460" width="90" height="190" as="geometry" />
        </mxCell>
        <mxCell id="6DcmtxWnwPzk28zKYCVo-13" value="&lt;font style=&quot;font-size: 18px;&quot;&gt;Driver&lt;/font&gt;" style="text;html=1;align=center;verticalAlign=middle;resizable=0;points=[];autosize=1;strokeColor=none;fillColor=none;" parent="1" vertex="1">
          <mxGeometry x="215" y="535" width="70" height="40" as="geometry" />
        </mxCell>
        <mxCell id="6DcmtxWnwPzk28zKYCVo-17" value="" style="verticalLabelPosition=bottom;verticalAlign=top;html=1;shape=offPageConnector;rounded=0;size=0.5;direction=south;fillColor=#99CCFF;strokeColor=#d6b656;" parent="1" vertex="1">
          <mxGeometry x="200" y="698.75" width="90" height="72.5" as="geometry" />
        </mxCell>
        <mxCell id="X3b5RwLaFphrtL6cEXgo-1" value="需求" style="rounded=0;whiteSpace=wrap;html=1;" parent="1" vertex="1">
          <mxGeometry x="-785" y="215" width="120" height="60" as="geometry" />
        </mxCell>
        <mxCell id="X3b5RwLaFphrtL6cEXgo-2" value="测试设计，根据方法论制定一系列编写用例的标准、思路、方法" style="rounded=0;whiteSpace=wrap;html=1;" parent="1" vertex="1">
          <mxGeometry x="-785" y="305" width="120" height="60" as="geometry" />
        </mxCell>
        <mxCell id="X3b5RwLaFphrtL6cEXgo-4" value="测试用例提纲&lt;br&gt;title" style="rounded=0;whiteSpace=wrap;html=1;" parent="1" vertex="1">
          <mxGeometry x="-640" y="260" width="120" height="60" as="geometry" />
        </mxCell>
        <mxCell id="X3b5RwLaFphrtL6cEXgo-5" value="测试用例编写&lt;br&gt;步骤" style="rounded=0;whiteSpace=wrap;html=1;" parent="1" vertex="1">
          <mxGeometry x="-490" y="260" width="120" height="60" as="geometry" />
        </mxCell>
        <mxCell id="X3b5RwLaFphrtL6cEXgo-6" value="评审" style="rounded=0;whiteSpace=wrap;html=1;" parent="1" vertex="1">
          <mxGeometry x="-340" y="260" width="120" height="60" as="geometry" />
        </mxCell>
        <mxCell id="X3b5RwLaFphrtL6cEXgo-7" value="测试" style="rounded=0;whiteSpace=wrap;html=1;" parent="1" vertex="1">
          <mxGeometry x="-200" y="260" width="120" height="60" as="geometry" />
        </mxCell>
        <mxCell id="rOpeUlGEQSWVmMxPxrqn-3" value="&lt;span style=&quot;font-size: 18px;&quot;&gt;Protocol&lt;/span&gt;" style="text;html=1;align=center;verticalAlign=middle;resizable=0;points=[];autosize=1;strokeColor=none;fillColor=none;" vertex="1" parent="1">
          <mxGeometry x="210" y="715" width="90" height="40" as="geometry" />
        </mxCell>
      </root>
    </mxGraphModel>
  </diagram>
</mxfile>
